<svg xmlns="http://www.w3.org/2000/svg" width="48" height="48" viewBox="0 0 48 48">
    <defs>
        <style>
            .cls-1{fill:none;opacity:.1}.cls-2{fill:#ffa630}
        </style>
    </defs>
    <g id="Group_3407" data-name="Group 3407" transform="translate(-523 -2655)">
        <rect id="Rectangle_2354" width="48" height="48" class="cls-1" data-name="Rectangle 2354" rx="6" transform="translate(523 2655)"/>
        <path id="Path_7786" d="M6.072 0h1.892L5.06-7.8H3.047L.11 0h1.826L2.5-1.584h3.011zM4.026-5.863l.935 2.7H3.069zM11.33-4.3v-1.992h1.012a.991.991 0 0 1 1.111 1 1 1 0 0 1-1.111.99zm1.188 1.5a2.47 2.47 0 0 0 2.673-2.5 2.482 2.482 0 0 0-2.673-2.5H9.581V0h1.738v-2.8zM18.689 0v-7.8h-1.76V0zM2.585 9.361V4.84H3.6a2.051 2.051 0 0 1 2.175 2.266A2.042 2.042 0 0 1 3.6 9.361zM3.663 11A3.658 3.658 0 0 0 7.59 7.106 3.664 3.664 0 0 0 3.674 3.2H.847V11zm10.626 0h1.892l-2.9-7.8h-2.017L8.327 11h1.826l.561-1.584h3.014zm-2.046-5.863l.935 2.7h-1.892zm10.747-.275V3.2h-6.545v1.662h2.4V11h1.738V4.862zM29.216 11h1.892L28.2 3.2h-2.009L23.254 11h1.826l.561-1.584h3.014zM27.17 5.137l.935 2.7h-1.892zM.847 14.2V22h3.146a2.228 2.228 0 0 0 2.442-2.211 1.826 1.826 0 0 0-1.386-1.826 1.746 1.746 0 0 0 1.144-1.672A2.14 2.14 0 0 0 3.762 14.2zm1.694 3.124v-1.682h.924c.682 0 1.023.33 1.023.836 0 .528-.4.847-1 .847zm0 3.256v-1.825H3.63c.682 0 1.078.374 1.078.913 0 .561-.407.913-1.078.913zM13.343 22h1.892l-2.9-7.8h-2.017L7.381 22h1.826l.561-1.584h3.014zM11.3 16.137l.935 2.695H10.34zm10.912-.022a2.591 2.591 0 0 0-2.849-2.079 2.634 2.634 0 0 0-2.794 2.508 2.345 2.345 0 0 0 2.123 2.288l1.067.2c.517.1.836.385.836.781 0 .484-.418.814-1.1.814a1.45 1.45 0 0 1-1.617-1.342l-1.595.385a2.915 2.915 0 0 0 3.19 2.5 2.621 2.621 0 0 0 2.879-2.47 2.431 2.431 0 0 0-2.252-2.342l-1.045-.2c-.539-.1-.77-.374-.77-.748a.957.957 0 0 1 1.067-.836 1.181 1.181 0 0 1 1.3.979zM29.15 22v-1.65h-3.212v-1.5h2.9v-1.525h-2.9V15.84h3.2V14.2H24.2V22z" class="cls-2" data-name="Path 7786" transform="translate(532 2672)"/>
    </g>
</svg>
