<svg width="48" height="48" viewBox="0 0 48 48" fill="none" xmlns="http://www.w3.org/2000/svg">
<path d="M42 0H6C2.68629 0 0 2.68629 0 6V42C0 45.3137 2.68629 48 6 48H42C45.3137 48 48 45.3137 48 42V6C48 2.68629 45.3137 0 42 0Z" fill="#FFF6EA"/>
<path d="M34.104 19.3871C33.6513 19.2084 33.1753 19.0417 32.676 18.8871C32.2386 18.7537 31.786 18.631 31.318 18.519C30.0205 18.2133 28.7038 17.9958 27.377 17.868C26.771 17.807 26.152 17.763 25.525 17.735C24.972 17.709 24.411 17.696 23.846 17.696C23.281 17.696 22.72 17.709 22.167 17.735C21.54 17.763 20.921 17.808 20.315 17.868C18.9881 17.9957 17.6714 18.2132 16.374 18.519C15.9073 18.631 15.4546 18.7537 15.016 18.8871C14.518 19.0391 14.042 19.2057 13.588 19.3871C10.631 20.5571 9.00098 22.195 9.00098 23.998C9.00098 25.801 10.631 27.439 13.588 28.61C14.0406 28.7887 14.5163 28.9554 15.015 29.11C15.4523 29.2434 15.905 29.366 16.373 29.478C17.6707 29.7839 18.9878 30.0014 20.315 30.129C20.921 30.189 21.54 30.2291 22.167 30.2621C22.72 30.2881 23.281 30.3 23.846 30.3C24.411 30.3 24.971 30.2871 25.524 30.2621C26.1513 30.2334 26.7686 30.189 27.376 30.129C28.7032 30.0017 30.0203 29.7842 31.318 29.478C31.7846 29.366 32.2373 29.2434 32.676 29.11C33.176 28.958 33.651 28.792 34.103 28.61C37.061 27.439 38.69 25.802 38.69 23.998C38.69 22.194 37.062 20.5571 34.104 19.3871ZM36.397 25.661C35.5672 26.3721 34.6155 26.927 33.588 27.299C33.184 27.4584 32.76 27.6067 32.316 27.744C31.872 27.8814 31.42 28.0044 30.96 28.1131C30.16 28.3051 29.304 28.4631 28.418 28.5851C27.8273 28.6671 27.222 28.7337 26.602 28.785C25.702 28.857 24.783 28.8931 23.846 28.8931C22.909 28.8931 21.987 28.857 21.09 28.785C20.471 28.736 19.864 28.6711 19.274 28.5851C18.388 28.4631 17.537 28.3051 16.732 28.1131C16.2653 28.0017 15.8133 27.8787 15.376 27.744C14.9386 27.6094 14.5146 27.461 14.104 27.299C13.0765 26.927 12.1248 26.372 11.295 25.661C11.0215 25.4783 10.7973 25.231 10.6422 24.9409C10.4871 24.6508 10.406 24.327 10.406 23.998C10.406 23.6691 10.4871 23.3453 10.6422 23.0552C10.7973 22.7651 11.0215 22.5178 11.295 22.3351C12.1248 21.624 13.0765 21.0691 14.104 20.6971C14.508 20.5377 14.932 20.3894 15.376 20.252C15.82 20.1147 16.272 19.9917 16.732 19.883C17.532 19.691 18.388 19.533 19.274 19.411C19.865 19.329 20.474 19.263 21.09 19.211C21.99 19.14 22.909 19.103 23.846 19.103C24.783 19.103 25.705 19.139 26.602 19.211C27.2206 19.259 27.826 19.3257 28.418 19.411C29.304 19.533 30.155 19.691 30.96 19.883C31.4266 19.9944 31.8786 20.1174 32.316 20.252C32.7533 20.3867 33.1773 20.5351 33.588 20.6971C34.6155 21.0707 35.5668 21.6274 36.396 22.34C36.6695 22.5228 36.8937 22.7701 37.0487 23.0602C37.2038 23.3503 37.2849 23.6741 37.2849 24.0031C37.2849 24.332 37.2038 24.6558 37.0487 24.9459C36.8937 25.236 36.6695 25.4833 36.396 25.666L36.397 25.661Z" fill="#FFA630"/>
<path opacity="0.5" d="M23.846 26.7951C25.3902 26.7951 26.642 25.5433 26.642 23.9991C26.642 22.4549 25.3902 21.2031 23.846 21.2031C22.3018 21.2031 21.05 22.4549 21.05 23.9991C21.05 25.5433 22.3018 26.7951 23.846 26.7951Z" fill="#FFA630"/>
<path d="M24.9878 12.8154C24.6067 13.1181 24.2244 13.447 23.8408 13.8021C23.507 14.1136 23.1747 14.4445 22.8439 14.7947C21.9326 15.7661 21.088 16.798 20.3159 17.8834C19.9609 18.3783 19.6168 18.8943 19.2747 19.4208C18.9765 19.8872 18.6865 20.3676 18.404 20.8569C18.1215 21.3462 17.8523 21.8385 17.5983 22.3304C17.309 22.8874 17.0385 23.446 16.7875 24.0008C16.2339 25.2133 15.7631 26.4618 15.3781 27.7378C15.2418 28.198 15.1217 28.6513 15.0178 29.0979C14.9005 29.6052 14.8068 30.1007 14.7368 30.5846C14.2664 33.7274 14.867 35.9552 16.4258 36.8552C17.9847 37.7552 20.2134 37.1609 22.7025 35.1836C23.0836 34.8809 23.4658 34.5523 23.8491 34.1977C24.1829 33.8862 24.5151 33.5554 24.8459 33.2052C25.759 32.2337 26.6053 31.2016 27.3789 30.1158C27.7339 29.621 28.078 29.1049 28.4201 28.5784C28.7183 28.112 29.01 27.6327 29.2925 27.1434C29.575 26.6541 29.8438 26.1626 30.0986 25.6712C30.3875 25.1136 30.6577 24.5568 30.9094 24.0008C31.4629 22.7878 31.9333 21.5386 32.3175 20.2619C32.4539 19.8018 32.574 19.3484 32.6778 18.9019C32.7962 18.3929 32.8908 17.899 32.9583 17.4161C33.4258 14.2704 32.8269 12.0436 31.2681 11.1436C29.7093 10.2436 27.4779 10.8364 24.9878 12.8154ZM31.5551 13.9605C31.7548 15.0343 31.7586 16.1354 31.5666 17.2107C31.5025 17.6402 31.4187 18.0814 31.3151 18.5342C31.2114 18.9871 31.0917 19.4399 30.9558 19.8926C30.722 20.6814 30.43 21.5012 30.0927 22.3295C29.8683 22.882 29.6236 23.4393 29.3584 24.0013C28.9707 24.8168 28.5424 25.6306 28.0739 26.4421C27.6054 27.2536 27.1132 28.0341 26.6032 28.7754C26.2513 29.2869 25.892 29.7793 25.522 30.2481C24.9734 30.9544 24.4119 31.6129 23.8445 32.2136C23.5147 32.5621 23.1825 32.8922 22.8478 33.204C22.5131 33.5157 22.173 33.8094 21.8277 34.0849C20.9931 34.7884 20.0382 35.3351 19.0091 35.6989C18.7085 35.8194 18.3861 35.8763 18.0624 35.8659C17.7386 35.8555 17.4206 35.778 17.1283 35.6384C16.8614 35.4549 16.6353 35.218 16.4645 34.9427C16.2938 34.6674 16.1819 34.3597 16.1361 34.039C15.9359 32.966 15.9312 31.8656 16.1223 30.7909C16.1863 30.3614 16.2701 29.9202 16.3738 29.4673C16.4774 29.0145 16.5975 28.5611 16.7341 28.1073C16.9678 27.3185 17.2598 26.4986 17.5972 25.6703C17.8217 25.1175 18.0699 24.5576 18.332 23.9976C18.7205 23.1827 19.1479 22.3683 19.6164 21.5569C20.0849 20.7454 20.5771 19.9649 21.088 19.2241C21.4389 18.7123 21.7991 18.2217 22.1687 17.7523C22.7173 17.046 23.2788 16.3875 23.8462 15.7867C24.1759 15.4382 24.5082 15.1081 24.8429 14.7964C25.1776 14.4846 25.5178 14.1914 25.8634 13.9168C26.6981 13.213 27.6531 12.6659 28.6825 12.302C28.9831 12.1814 29.3055 12.1245 29.6292 12.1349C29.9529 12.1453 30.271 12.2228 30.5632 12.3625C30.83 12.5457 31.0559 12.7822 31.2267 13.0571C31.3975 13.332 31.5095 13.6393 31.5556 13.9596L31.5551 13.9605Z" fill="#FFA630"/>
<path d="M32.9561 30.5803C32.8845 30.0989 32.7909 29.6033 32.6751 29.0936C32.5719 28.6482 32.4518 28.1948 32.3148 27.7335C31.9305 26.4572 31.4602 25.2083 30.9073 23.9955C30.6546 23.4439 30.3832 22.8859 30.094 22.3289C29.84 21.8369 29.5725 21.3436 29.29 20.8543C29.0075 20.365 28.7145 19.8875 28.4158 19.4202C28.0781 18.8912 27.7296 18.3777 27.3747 17.8829C26.6013 16.7977 25.7553 15.7662 24.8426 14.7952C24.5129 14.4468 24.1806 14.1159 23.8458 13.8027C23.4657 13.4471 23.0834 13.1182 22.6988 12.816C20.2131 10.8366 17.983 10.242 16.4241 11.142C14.8653 12.042 14.2652 14.2706 14.7339 17.4145C14.8055 17.8958 14.899 18.3911 15.0144 18.9003C15.1176 19.3457 15.238 19.7989 15.3756 20.2599C15.76 21.5365 16.2305 22.7856 16.7837 23.9987C17.0347 24.5535 17.3096 25.1096 17.5945 25.6691C17.8485 26.161 18.1186 26.6529 18.4011 27.1422C18.6836 27.6315 18.974 28.1104 19.273 28.5764C19.6115 29.1053 19.9585 29.6178 20.3142 30.1137C21.0876 31.1997 21.9339 32.2318 22.8472 33.2031C23.177 33.5516 23.5092 33.8824 23.844 34.1957C24.2257 34.5527 24.6056 34.8807 24.9906 35.1815C27.4802 37.1597 29.7084 37.7531 31.2673 36.8531C32.8261 35.9531 33.4246 33.7277 32.9561 30.5803ZM28.6848 35.7021C27.6555 35.3382 26.7004 34.7911 25.8657 34.0873C25.5257 33.8171 25.1856 33.5239 24.8452 33.2077C24.5049 32.8916 24.1726 32.5614 23.8485 32.2174C23.2822 31.6206 22.7183 30.9578 22.171 30.2518C21.8046 29.7813 21.4444 29.2907 21.0903 28.78C20.5779 28.0366 20.0872 27.2587 19.6187 26.4472C19.1502 25.6358 18.7204 24.8193 18.3343 24.0065C18.0672 23.4459 17.8205 22.8886 17.5995 22.3338C17.2621 21.5055 16.9726 20.69 16.7364 19.8968C16.5995 19.437 16.4797 18.9842 16.3771 18.5385C16.2745 18.0928 16.1893 17.6485 16.1215 17.2058C15.9318 16.1328 15.9372 15.0344 16.1374 13.9634C16.1832 13.6427 16.2951 13.335 16.4659 13.0597C16.6366 12.7844 16.8627 12.5475 17.1296 12.364C17.4219 12.2243 17.7399 12.1469 18.0637 12.1365C18.3874 12.1261 18.7098 12.1829 19.0104 12.3035C20.0381 12.666 20.9919 13.211 21.826 13.9123C22.166 14.1825 22.5061 14.4757 22.8465 14.7918C23.1868 15.108 23.5191 15.4381 23.8432 15.7822C24.4095 16.379 24.9734 17.0418 25.5207 17.7477C25.8872 18.2186 26.248 18.7135 26.6019 19.2204C27.1134 19.9644 27.6041 20.7422 28.0726 21.5537C28.5411 22.3652 28.9709 23.1816 29.3571 23.9945C29.6248 24.5543 29.8696 25.1115 30.0913 25.6663C30.4287 26.4946 30.7182 27.3101 30.9544 28.1032C31.0914 28.5631 31.2111 29.0158 31.3137 29.4616C31.4164 29.9073 31.4994 30.3505 31.5629 30.7911C31.7561 31.8653 31.7537 32.9655 31.5558 34.0388C31.51 34.3595 31.3981 34.6672 31.2273 34.9425C31.0565 35.2178 30.8305 35.4547 30.5635 35.6382C30.2718 35.7781 29.9542 35.856 29.6309 35.867C29.3075 35.878 28.9854 35.8219 28.6848 35.7021V35.7021Z" fill="#FFA630"/>
</svg>
